<?xml version="1.0" encoding="UTF-8"?>
<!DOCTYPE svg PUBLIC "-//W3C//DTD SVG 1.1//EN" "http://www.w3.org/Graphics/SVG/1.1/DTD/svg11.dtd">
<!-- Creator: CorelDRAW -->
<svg xmlns="http://www.w3.org/2000/svg" xml:space="preserve" width="30px" height="30px" version="1.1" style="shape-rendering:geometricPrecision; text-rendering:geometricPrecision; image-rendering:optimizeQuality; fill-rule:evenodd; clip-rule:evenodd"
viewBox="0 0 30 30"
 xmlns:xlink="http://www.w3.org/1999/xlink"
 xmlns:xodm="http://www.corel.com/coreldraw/odm/2003">
 <defs>
  <style type="text/css">
   <![CDATA[
    .fil0 {fill:#FEFEFE}
   ]]>
  </style>
 </defs>
 <g id="Слой_x0020_1">
  <metadata id="CorelCorpID_0Corel-Layer"/>
  <path class="fil0" d="M1.08 12.65c0.16,0.63 3.13,3.51 3.73,4.13 2.11,2.17 2.38,1.58 2.06,3.42l-0.87 5.18c-0.18,1.12 -0.53,2.51 0.27,3.26 1.17,1.08 3.46,-0.57 5.19,-1.57 4.07,-2.36 3.36,-2.05 5.13,-1.09 1.63,0.89 3.29,1.86 4.97,2.74 0.96,0.49 2.05,0.36 2.53,-0.55 0.45,-0.83 -0.54,-5.47 -0.72,-6.68 -0.24,-1.62 -0.71,-2.12 0.27,-3.07 1.3,-1.28 2.61,-2.62 3.87,-4.02 0.52,-0.58 1.59,-1.23 1.48,-2.46 -0.1,-1.24 -1.14,-1.45 -2.26,-1.62 -0.88,-0.13 -6.38,-0.93 -6.71,-1.12 -0.6,-0.34 -3.13,-7.08 -3.99,-7.82 -0.93,-0.79 -2.03,-0.22 -2.5,0.53l-2.52 5.29c-0.94,1.89 -0.47,1.97 -1.72,2.18 -1.1,0.18 -2.19,0.32 -3.28,0.5 -2.27,0.37 -5.56,0.22 -4.93,2.77z"/>
  <path class="fil0" d="M21.33 19.44c0.18,-1.03 -0.24,-2.23 -1.27,-1.49 -0.37,0.27 -0.43,1.84 -0.71,2.43 -1.17,2.42 -3.49,1.78 -4.07,2.35 -0.97,0.95 0.71,2.34 3.55,0.52 1.19,-0.76 2.17,-1.99 2.5,-3.81zm-5.93 -17.29c0.89,0.21 2.11,2.08 2.63,2.82 0.82,1.16 1.52,2.06 2.28,3.25 3.08,4.83 6.42,10.49 1.99,15.62 -6.86,7.93 -19.56,0.61 -16.01,-8.97 1.38,-3.74 4.8,-8.77 7.34,-11.91 0.42,-0.53 0.88,-1.02 1.77,-0.81z"/>
 </g>
</svg>
