<?xml version="1.0" encoding="UTF-8"?>
<!DOCTYPE svg PUBLIC "-//W3C//DTD SVG 1.1//EN" "http://www.w3.org/Graphics/SVG/1.1/DTD/svg11.dtd">
<!-- Creator: CorelDRAW -->
<svg xmlns="http://www.w3.org/2000/svg" xml:space="preserve" width="30px" height="30px" version="1.1" style="shape-rendering:geometricPrecision; text-rendering:geometricPrecision; image-rendering:optimizeQuality; fill-rule:evenodd; clip-rule:evenodd"
viewBox="0 0 30 30"
 xmlns:xlink="http://www.w3.org/1999/xlink"
 xmlns:xodm="http://www.corel.com/coreldraw/odm/2003">
 <defs>
  <style type="text/css">
   <![CDATA[
    .fil0 {fill:#FEFEFE}
   ]]>
  </style>
 </defs>
 <g id="Слой_x0020_1">
  <metadata id="CorelCorpID_0Corel-Layer"/>
  <path class="fil0" d="M21.33 19.44c0.18,-1.03 -0.24,-2.23 -1.27,-1.49 -0.37,0.27 -0.43,1.84 -0.71,2.43 -1.17,2.42 -3.49,1.78 -4.07,2.35 -0.97,0.95 0.71,2.34 3.55,0.52 1.19,-0.76 2.17,-1.99 2.5,-3.81zm-5.93 -17.29c0.89,0.21 2.11,2.08 2.63,2.82 0.82,1.16 1.52,2.06 2.28,3.25 3.08,4.83 6.42,10.49 1.99,15.62 -6.86,7.93 -19.56,0.61 -16.01,-8.97 1.38,-3.74 4.8,-8.77 7.34,-11.91 0.42,-0.53 0.88,-1.02 1.77,-0.81z"/>
 </g>
</svg>
