<?xml version="1.0" encoding="UTF-8"?>
<!DOCTYPE svg PUBLIC "-//W3C//DTD SVG 1.1//EN" "http://www.w3.org/Graphics/SVG/1.1/DTD/svg11.dtd">
<!-- Creator: CorelDRAW -->
<svg xmlns="http://www.w3.org/2000/svg" xml:space="preserve" width="32px" height="202px" version="1.1" style="shape-rendering:geometricPrecision; text-rendering:geometricPrecision; image-rendering:optimizeQuality; fill-rule:evenodd; clip-rule:evenodd"
viewBox="0 0 32 200.1"
 xmlns:xlink="http://www.w3.org/1999/xlink"
 xmlns:xodm="http://www.corel.com/coreldraw/odm/2003">
 <defs>
  <style type="text/css">
   <![CDATA[
    .fil0 {fill:none}
    .fil1 {fill:#EBECEC}
   ]]>
  </style>
   <mask id="id0">
  <linearGradient id="id1" gradientUnits="userSpaceOnUse" x1="4.08" y1="99.1" x2="12.03" y2="99.1">
   <stop offset="0" style="stop-opacity:0; stop-color:white"/>
   <stop offset="1" style="stop-opacity:1; stop-color:white"/>
  </linearGradient>
    <rect style="fill:url(#id1)" x="4.08" y="4.47" width="7.95" height="189.26"/>
   </mask>
   <mask id="id2">
  <linearGradient id="id3" gradientUnits="userSpaceOnUse" x1="23.52" y1="98.73" x2="27.45" y2="98.73">
   <stop offset="0" style="stop-opacity:1; stop-color:white"/>
   <stop offset="1" style="stop-opacity:0; stop-color:white"/>
  </linearGradient>
    <rect style="fill:url(#id3)" x="23.52" y="4.31" width="3.93" height="188.83"/>
   </mask>
 </defs>
 <g id="Слой_x0020_1">
  <metadata id="CorelCorpID_0Corel-Layer"/>
  <path class="fil0" d="M0.34 1.23l29.66 0 0 183.64c0,7.77 -6.35,14.12 -14.12,14.12l-1.43 0c-7.76,0 -14.11,-6.35 -14.11,-14.12l0 -183.64z"/>
  <path class="fil1" style="mask:url(#id0)" d="M4.68 4.47l7.26 0c0.05,17.39 -1.41,178.32 -0.19,184.5 0.45,2.27 0.43,3.35 -0.61,4.45 -1.41,1.49 -7.06,-2.64 -7.06,-6.95l0 -181.4c0,-0.33 0.27,-0.6 0.6,-0.6z"/>
  <path class="fil1" style="mask:url(#id2)" d="M27.45 4.31l-3.93 0 0 188.83 0 0c0,0 3.65,-3.32 3.93,-7.5l0 -181.33z"/>
 </g>
</svg>
