<?xml version="1.0" encoding="UTF-8"?>
<!DOCTYPE svg PUBLIC "-//W3C//DTD SVG 1.1//EN" "http://www.w3.org/Graphics/SVG/1.1/DTD/svg11.dtd">
<!-- Creator: CorelDRAW -->
<svg xmlns="http://www.w3.org/2000/svg" xml:space="preserve" width="30px" height="30px" version="1.1" style="shape-rendering:geometricPrecision; text-rendering:geometricPrecision; image-rendering:optimizeQuality; fill-rule:evenodd; clip-rule:evenodd"
viewBox="0 0 30 30"
 xmlns:xlink="http://www.w3.org/1999/xlink"
 xmlns:xodm="http://www.corel.com/coreldraw/odm/2003">
 <defs>
  <style type="text/css">
   <![CDATA[
    .fil0 {fill:#FFED00}
   ]]>
  </style>
 </defs>
 <g id="Слой_x0020_1">
  <metadata id="CorelCorpID_0Corel-Layer"/>
  <path class="fil0" d="M15.39 12.92c-2.54,0 -1.29,1.66 -1.67,4.63 -0.48,0.14 -0.86,0.15 -1.1,0.51 -0.26,0.37 -0.22,0.95 0.08,1.28 0.52,0.57 1.97,0.34 2.8,0.34 0.96,0 2.15,0.15 2.28,-0.9 0.15,-1.24 -0.93,-1.11 -1.98,-1.17l0.05 -2.63c1.01,-0.03 2.21,0.04 1.91,-1.31 -0.21,-0.91 -1.42,-0.75 -2.37,-0.75zm0.16 -3.93c-1.89,-0.55 -2.41,2.18 -0.87,2.6 1.95,0.53 2.41,-2.16 0.87,-2.6zm10.21 6.27c-1.08,9.6 -12.77,13.01 -18.72,6 -3.95,-4.65 -3.26,-11.36 1.12,-15.05 0.95,-0.81 1.95,-1.5 3.38,-1.97 8.1,-2.7 15.01,4.08 14.22,11.02z"/>
 </g>
</svg>
