<?xml version="1.0" encoding="UTF-8"?>
<!DOCTYPE svg PUBLIC "-//W3C//DTD SVG 1.1//EN" "http://www.w3.org/Graphics/SVG/1.1/DTD/svg11.dtd">
<!-- Creator: CorelDRAW -->
<svg xmlns="http://www.w3.org/2000/svg" xml:space="preserve" width="30px" height="30px" version="1.1" style="shape-rendering:geometricPrecision; text-rendering:geometricPrecision; image-rendering:optimizeQuality; fill-rule:evenodd; clip-rule:evenodd"
viewBox="0 0 30 30"
 xmlns:xlink="http://www.w3.org/1999/xlink"
 xmlns:xodm="http://www.corel.com/coreldraw/odm/2003">
 <defs>
  <style type="text/css">
   <![CDATA[
    .fil0 {fill:#FEFEFE}
   ]]>
  </style>
 </defs>
 <g id="Слой_x0020_1">
  <metadata id="CorelCorpID_0Corel-Layer"/>
  <path class="fil0" d="M21.79 6.69l2.63 -0.02 -0.02 8.62 -2.61 -0.08 0 -8.52zm-3 0.04c0.17,4 0.01,8.36 0.01,12.4 0,1.76 -0.23,4.4 0.45,5.81 1.62,3.37 6.43,2.91 7.7,-0.04 0.7,-1.63 0.45,-3.86 0.45,-5.77 0,-4.15 0.01,-8.3 0,-12.46 0.82,-0.23 1.34,-0.28 1.6,-1.1 0.31,-0.98 -0.1,-1.78 -0.69,-2.09 -0.93,-0.5 -4.06,-0.27 -5.32,-0.27 -1.86,0 -6.77,-0.75 -5.81,2.31 0.33,1.05 0.82,0.75 1.61,1.21z"/>
  <rect class="fil0" x="0.78" y="14.08" width="15.43" height="3.43" rx="3.26" ry="3.03"/>
  <rect class="fil0" transform="matrix(0.530605 0.439819 -0.586755 0.707872 9.63641 8.62249)" width="15.59" height="3.73" rx="3.29" ry="3.29"/>
  <rect class="fil0" transform="matrix(-0.530605 0.439819 0.586755 0.707872 15.5663 13.518)" width="15.59" height="3.73" rx="3.29" ry="3.29"/>
 </g>
</svg>
