<?xml version="1.0" encoding="UTF-8"?>
<!DOCTYPE svg PUBLIC "-//W3C//DTD SVG 1.1//EN" "http://www.w3.org/Graphics/SVG/1.1/DTD/svg11.dtd">
<!-- Creator: CorelDRAW -->
<svg xmlns="http://www.w3.org/2000/svg" xml:space="preserve" width="30px" height="30px" version="1.1" style="shape-rendering:geometricPrecision; text-rendering:geometricPrecision; image-rendering:optimizeQuality; fill-rule:evenodd; clip-rule:evenodd"
viewBox="0 0 30 30"
 xmlns:xlink="http://www.w3.org/1999/xlink"
 xmlns:xodm="http://www.corel.com/coreldraw/odm/2003">
 <defs>
  <style type="text/css">
   <![CDATA[
    .fil0 {fill:#FFED00}
   ]]>
  </style>
 </defs>
 <g id="Слой_x0020_1">
  <metadata id="CorelCorpID_0Corel-Layer"/>
  <path class="fil0" d="M20.94 5.54l2.63 -0.02 -0.02 8.62 -2.61 -0.08 0 -8.52zm-3 0.04c0.17,4 0.01,8.36 0.01,12.4 0,1.76 -0.23,4.4 0.45,5.8 1.62,3.38 6.43,2.92 7.7,-0.03 0.7,-1.63 0.45,-3.86 0.45,-5.77 0,-4.15 0.01,-8.3 0,-12.46 0.82,-0.23 1.34,-0.28 1.6,-1.1 0.31,-0.98 -0.1,-1.78 -0.69,-2.1 -0.92,-0.49 -4.06,-0.26 -5.32,-0.26 -1.86,0 -6.77,-0.75 -5.81,2.31 0.33,1.05 0.82,0.75 1.61,1.21z"/>
  <rect class="fil0" transform="matrix(5.42114E-14 -1.81319 1.31934 3.09524E-14 1.4257 15.4985)" width="2.13" height="11.06" rx="4.41" ry="4.41"/>
  <rect class="fil0" x="6.79" y="6.27" width="3.86" height="14.59" rx="8" ry="5.82"/>
 </g>
</svg>
