<?xml version="1.0" encoding="UTF-8"?>
<!DOCTYPE svg PUBLIC "-//W3C//DTD SVG 1.1//EN" "http://www.w3.org/Graphics/SVG/1.1/DTD/svg11.dtd">
<!-- Creator: CorelDRAW -->
<svg xmlns="http://www.w3.org/2000/svg" xml:space="preserve" width="30px" height="30px" version="1.1" style="shape-rendering:geometricPrecision; text-rendering:geometricPrecision; image-rendering:optimizeQuality; fill-rule:evenodd; clip-rule:evenodd"
viewBox="0 0 30 30"
 xmlns:xlink="http://www.w3.org/1999/xlink"
 xmlns:xodm="http://www.corel.com/coreldraw/odm/2003">
 <defs>
  <style type="text/css">
   <![CDATA[
    .fil0 {fill:#FFED00}
   ]]>
  </style>
 </defs>
 <g id="Слой_x0020_1">
  <metadata id="CorelCorpID_0Corel-Layer"/>
  <g id="_1710188108592">
   <path class="fil0" d="M18.2 4.58c-2.22,0.57 -8.78,-0.66 -12.23,0.82 -3.1,1.34 -5.37,4.62 -5.29,7.95 0.06,2.3 3.08,2.32 3.4,0.4 0.39,-2.33 0.51,-3.31 2.08,-4.52 1.63,-1.25 3.16,-1.1 5.51,-1.1 1.33,0 5.53,-0.17 6.53,0.08 0.06,1.29 -0.19,2.44 0.71,3.09 1.61,1.17 3.01,-0.91 4.62,-2.51 2.86,-2.83 1.9,-2.84 -1.9,-6.67 -0.63,-0.64 -1.35,-1.41 -2.6,-0.64 -1.06,0.65 -0.75,1.68 -0.83,3.1z"/>
   <path class="fil0" d="M11.16 25.74c2.87,-0.59 8.81,0.69 12.34,-0.85 2.49,-1.08 5.42,-4.25 5.19,-8.05 -0.13,-2.1 -3.16,-2.25 -3.42,-0.13 -0.26,2.13 -0.72,3.44 -2.14,4.45 -1.63,1.16 -3.25,1.08 -5.57,1.08 -1.21,0 -5.53,0.15 -6.39,-0.11 -0.06,-1.32 0.17,-2.57 -0.79,-3.15 -1.26,-0.76 -2.07,0.11 -2.63,0.68 -0.69,0.69 -1.28,1.28 -1.97,1.97 -0.52,0.52 -1.61,1.21 -1.58,2.36 0.03,1.13 2.91,3.57 3.61,4.29 0.66,0.67 1.39,1.3 2.62,0.53 0.91,-0.57 0.73,-1.79 0.73,-3.07z"/>
  </g>
 </g>
</svg>
