<?xml version="1.0" encoding="UTF-8"?>
<!DOCTYPE svg PUBLIC "-//W3C//DTD SVG 1.1//EN" "http://www.w3.org/Graphics/SVG/1.1/DTD/svg11.dtd">
<!-- Creator: CorelDRAW -->
<svg xmlns="http://www.w3.org/2000/svg" xml:space="preserve" width="30px" height="30px" version="1.1" style="shape-rendering:geometricPrecision; text-rendering:geometricPrecision; image-rendering:optimizeQuality; fill-rule:evenodd; clip-rule:evenodd"
viewBox="0 0 30 30"
 xmlns:xlink="http://www.w3.org/1999/xlink"
 xmlns:xodm="http://www.corel.com/coreldraw/odm/2003">
 <defs>
  <style type="text/css">
   <![CDATA[
    .fil0 {fill:#FEFEFE}
   ]]>
  </style>
 </defs>
 <g id="Слой_x0020_1">
  <metadata id="CorelCorpID_0Corel-Layer"/>
  <path class="fil0" d="M13.57 5.89l2.62 -0.01 -0.01 8.62 -2.61 -0.08 0 -8.53zm-3 0.05c0.17,3.99 0.01,8.36 0.01,12.4 0,1.75 -0.23,4.4 0.45,5.8 1.62,3.37 6.43,2.92 7.7,-0.04 0.7,-1.62 0.45,-3.85 0.45,-5.76 0,-4.15 0,-8.31 0,-12.46 0.82,-0.23 1.33,-0.28 1.6,-1.11 0.31,-0.97 -0.11,-1.77 -0.69,-2.09 -0.93,-0.49 -4.06,-0.27 -5.33,-0.27 -1.85,0 -6.76,-0.74 -5.8,2.32 0.33,1.04 0.82,0.74 1.61,1.21z"/>
 </g>
</svg>
