<?xml version="1.0" encoding="UTF-8"?>
<!DOCTYPE svg PUBLIC "-//W3C//DTD SVG 1.1//EN" "http://www.w3.org/Graphics/SVG/1.1/DTD/svg11.dtd">
<!-- Creator: CorelDRAW -->
<svg xmlns="http://www.w3.org/2000/svg" xml:space="preserve" width="16px" height="16px" version="1.1" style="shape-rendering:geometricPrecision; text-rendering:geometricPrecision; image-rendering:optimizeQuality; fill-rule:evenodd; clip-rule:evenodd"
viewBox="0 0 16 16"
 xmlns:xlink="http://www.w3.org/1999/xlink"
 xmlns:xodm="http://www.corel.com/coreldraw/odm/2003">
 <defs>
  <style type="text/css">
   <![CDATA[
    .str0 {stroke:#2B2A29;stroke-width:0.24;stroke-miterlimit:22.9256}
    .fil0 {fill:#2B2A29}
    .fil1 {fill:#A67D44}
   ]]>
  </style>
 </defs>
 <g id="l2">
  <metadata id="CorelCorpID_0Corel-Layer"/>
  <rect class="fil0 str0" x="0.76" y="4.51" width="14.46" height="7.03"/>
  <path class="fil1" d="M1.78 0l12.44 0c0.98,0 1.78,0.8 1.78,1.78l0 12.44c0,0.98 -0.8,1.78 -1.78,1.78l-12.44 0c-0.98,0 -1.78,-0.8 -1.78,-1.78l0 -12.44c0,-0.98 0.8,-1.78 1.78,-1.78zm-0.32 11.1l0.05 0c0.04,0 0.09,-0.02 0.13,-0.06 0.03,-0.03 0.07,-0.08 0.1,-0.13 0.03,-0.05 0.05,-0.11 0.06,-0.17 0.01,-0.06 0.02,-0.12 0.02,-0.17l0 -5.16c0,-0.04 -0.01,-0.1 -0.02,-0.15 -0.01,-0.06 -0.03,-0.12 -0.06,-0.17 -0.03,-0.06 -0.07,-0.1 -0.11,-0.14 -0.04,-0.03 -0.09,-0.05 -0.14,-0.05l-0.05 0 0 -0.1 1.59 0c0.6,0 1.07,0.13 1.41,0.4 0.34,0.26 0.51,0.62 0.51,1.05 0,0.19 -0.03,0.36 -0.1,0.51 -0.06,0.15 -0.14,0.28 -0.24,0.4 -0.1,0.11 -0.21,0.21 -0.33,0.29 -0.11,0.08 -0.22,0.15 -0.33,0.2 0.27,0.05 0.5,0.14 0.68,0.26 0.18,0.13 0.33,0.27 0.44,0.42 0.11,0.16 0.19,0.33 0.23,0.51 0.05,0.18 0.07,0.36 0.07,0.54 0,0.33 -0.06,0.62 -0.19,0.85 -0.12,0.22 -0.28,0.41 -0.48,0.56 -0.21,0.14 -0.44,0.25 -0.7,0.31 -0.26,0.07 -0.53,0.1 -0.81,0.1l-1.73 0 0 -0.1zm3.26 -1.66c-0.05,-0.5 -0.22,-0.89 -0.51,-1.16 -0.28,-0.27 -0.68,-0.41 -1.2,-0.41l-0.54 0 0 3.02 0.56 0c0.52,0 0.94,-0.12 1.24,-0.36 0.3,-0.23 0.45,-0.56 0.45,-0.98l0 -0.11zm-0.4 -3.1c-0.02,-0.38 -0.15,-0.68 -0.39,-0.9 -0.24,-0.22 -0.57,-0.33 -0.98,-0.33l-0.48 0 0 2.45 0.5 0c0.27,0 0.5,-0.03 0.67,-0.1 0.17,-0.07 0.31,-0.17 0.41,-0.28 0.1,-0.11 0.17,-0.24 0.21,-0.38 0.04,-0.13 0.06,-0.27 0.06,-0.39l0 -0.07zm1.87 -1.54l1.38 0c0.72,0 1.26,0.14 1.63,0.41 0.37,0.28 0.56,0.67 0.56,1.17 0,0.27 -0.07,0.51 -0.19,0.73 -0.14,0.21 -0.3,0.39 -0.52,0.54 -0.21,0.14 -0.44,0.25 -0.71,0.33 -0.26,0.08 -0.52,0.12 -0.78,0.12l-0.37 0 0 2.47c0,0.05 0.01,0.11 0.02,0.17 0.01,0.06 0.03,0.12 0.06,0.17 0.03,0.05 0.06,0.1 0.1,0.13 0.04,0.04 0.08,0.06 0.13,0.06l0.05 0 0 0.1 -1.36 0 0 -0.1 0.05 0c0.05,0 0.09,-0.02 0.13,-0.06 0.04,-0.03 0.07,-0.08 0.09,-0.13 0.03,-0.05 0.05,-0.11 0.06,-0.17 0.01,-0.06 0.02,-0.12 0.02,-0.17l0 -5.17c0,-0.09 -0.02,-0.19 -0.08,-0.31 -0.05,-0.11 -0.12,-0.18 -0.22,-0.19l-0.05 0 0 -0.1zm1 0.34l0 2.62 0.29 0c0.26,0 0.49,-0.04 0.7,-0.11 0.2,-0.07 0.37,-0.16 0.51,-0.28 0.14,-0.12 0.24,-0.25 0.31,-0.4 0.07,-0.15 0.11,-0.3 0.11,-0.45 0,-0.19 -0.03,-0.37 -0.09,-0.53 -0.06,-0.17 -0.17,-0.31 -0.3,-0.44 -0.14,-0.12 -0.33,-0.22 -0.56,-0.3 -0.22,-0.07 -0.5,-0.11 -0.83,-0.11l-0.14 0zm3.39 5.96l0.05 0c0.05,0 0.1,-0.02 0.14,-0.05 0.04,-0.04 0.07,-0.08 0.1,-0.13 0.03,-0.05 0.05,-0.11 0.07,-0.17 0.01,-0.05 0.02,-0.11 0.02,-0.16l0 -5.19c0,-0.04 -0.01,-0.1 -0.02,-0.15 -0.02,-0.06 -0.04,-0.12 -0.07,-0.17 -0.03,-0.05 -0.06,-0.09 -0.1,-0.13 -0.04,-0.03 -0.09,-0.05 -0.14,-0.05l-0.05 0 0 -0.1 1.4 0 0 0.1 -0.05 0c-0.05,0 -0.1,0.02 -0.13,0.05 -0.04,0.04 -0.08,0.08 -0.1,0.13 -0.03,0.05 -0.05,0.11 -0.06,0.17 -0.02,0.05 -0.03,0.11 -0.03,0.15l0 5.44 2.12 0c0.13,0 0.23,-0.03 0.32,-0.09 0.09,-0.05 0.17,-0.13 0.23,-0.21 0.06,-0.09 0.11,-0.19 0.14,-0.29 0.03,-0.1 0.04,-0.19 0.04,-0.27l0.1 0 0 1.22 -3.98 0 0 -0.1z"/>
 </g>
</svg>
