<?xml version="1.0" encoding="UTF-8"?>
<!DOCTYPE svg PUBLIC "-//W3C//DTD SVG 1.1//EN" "http://www.w3.org/Graphics/SVG/1.1/DTD/svg11.dtd">
<!-- Creator: CorelDRAW -->
<svg xmlns="http://www.w3.org/2000/svg" xml:space="preserve" width="28px" height="28px" version="1.1" style="shape-rendering:geometricPrecision; text-rendering:geometricPrecision; image-rendering:optimizeQuality; fill-rule:evenodd; clip-rule:evenodd"
viewBox="0 0 28 28"
 xmlns:xlink="http://www.w3.org/1999/xlink"
 xmlns:xodm="http://www.corel.com/coreldraw/odm/2003">
 <defs>
  <style type="text/css">
   <![CDATA[
    .fil0 {fill:#FFFFFF}
   ]]>
  </style>
 </defs>
 <g id="layer-1">
  <metadata id="CorelCorpID_0Corel-Layer"/>
  <g id="_2252982277312">
   <g id="icon_profile">
    <path id="Subtract" class="fil0" d="M27.96 14c0,7.74 -6.27,14 -14,14 -7.73,0 -14,-6.26 -14,-14 0,-7.73 6.27,-14 14,-14 7.73,0 14,6.27 14,14zm-9.33 -6.22c0,2.58 -2.09,4.67 -4.67,4.67 -2.58,0 -4.67,-2.09 -4.67,-4.67 0,-2.58 2.09,-4.67 4.67,-4.67 2.58,0 4.67,2.09 4.67,4.67zm0.83 8.5c1.46,1.46 2.28,3.44 2.28,5.5l-7.78 0 -7.78 0c0,-2.06 0.82,-4.04 2.28,-5.5 1.46,-1.46 3.44,-2.28 5.5,-2.28 2.06,0 4.04,0.82 5.5,2.28z"/>
   </g>
  </g>
 </g>
</svg>
