<?xml version="1.0" encoding="UTF-8"?>
<!DOCTYPE svg PUBLIC "-//W3C//DTD SVG 1.1//EN" "http://www.w3.org/Graphics/SVG/1.1/DTD/svg11.dtd">
<!-- Creator: CorelDRAW -->
<svg xmlns="http://www.w3.org/2000/svg" xml:space="preserve" width="22px" height="22px" version="1.1" style="shape-rendering:geometricPrecision; text-rendering:geometricPrecision; image-rendering:optimizeQuality; fill-rule:evenodd; clip-rule:evenodd"
viewBox="0 0 22 22"
 xmlns:xlink="http://www.w3.org/1999/xlink"
 xmlns:xodm="http://www.corel.com/coreldraw/odm/2003">
 <defs>
  <style type="text/css">
   <![CDATA[
    .fil0 {fill:black}
   ]]>
  </style>
 </defs>
 <g id="Слой_x0020_1">
  <metadata id="CorelCorpID_0Corel-Layer"/>
  <g id="_2369752549984">
   <path class="fil0" d="M0.66 18.02c0.16,0.91 1.2,0.75 2.12,0.75l17.4 -0.01c0.44,0 1.98,0.22 1.82,-1.03 -0.12,-0.98 -1.24,-0.77 -2.17,-0.77l-14.49 0c-0.63,0 -3.82,-0.13 -4.25,0.12 -0.26,0.15 -0.5,0.53 -0.43,0.94z"/>
   <path class="fil0" d="M0.66 13.48c0.16,0.93 1.2,0.76 2.12,0.76 0.97,0 1.94,0 2.9,0l14.5 0c0.47,0 1.99,0.22 1.82,-1.05 -0.12,-0.96 -1.25,-0.75 -2.17,-0.76l-14.49 0c-0.63,0 -3.81,-0.12 -4.24,0.12 -0.25,0.14 -0.52,0.47 -0.44,0.93z"/>
   <path class="fil0" d="M6.24 6.91c0.28,-0.54 -0.13,-0.95 -0.44,-1.16l-3.13 -2.04c-0.86,-0.55 -1.64,-1.29 -2.3,-0.73 -0.4,0.34 -0.32,0.8 -0.32,1.43 -0.01,1.03 -0.07,4.65 0.01,5.17 0.08,0.45 0.48,0.8 1.04,0.72 0.29,-0.05 0.85,-0.46 1.09,-0.61 0.61,-0.4 3.85,-2.38 4.05,-2.78z"/>
   <path class="fil0" d="M8.92 3.4c-0.47,0.1 -0.88,0.53 -0.7,1.15 0.18,0.61 0.67,0.64 1.35,0.64 1.31,0 2.63,-0.01 3.94,0 1.05,0 7.34,0.07 7.81,-0.03 0.46,-0.1 0.83,-0.59 0.66,-1.15 -0.17,-0.56 -0.67,-0.64 -1.33,-0.63 -1.45,0.01 -11.28,-0.08 -11.73,0.02z"/>
   <path class="fil0" d="M8.2 9.01c0.14,0.58 0.56,0.71 1.25,0.71l9.74 -0.01c1.06,0 3.08,0.34 2.8,-1.11 -0.11,-0.59 -0.63,-0.71 -1.29,-0.7l-11.71 0.01c-0.49,0.05 -0.93,0.5 -0.79,1.1z"/>
  </g>
 </g>
</svg>
