<?xml version="1.0" encoding="UTF-8"?>
<!DOCTYPE svg PUBLIC "-//W3C//DTD SVG 1.1//EN" "http://www.w3.org/Graphics/SVG/1.1/DTD/svg11.dtd">
<!-- Creator: CorelDRAW -->
<svg xmlns="http://www.w3.org/2000/svg" xml:space="preserve" width="759px" height="274px" version="1.1" style="shape-rendering:geometricPrecision; text-rendering:geometricPrecision; image-rendering:optimizeQuality; fill-rule:evenodd; clip-rule:evenodd"
viewBox="0 0 759 274.18"
 xmlns:xlink="http://www.w3.org/1999/xlink"
 xmlns:xodm="http://www.corel.com/coreldraw/odm/2003">
 <defs>
  <style type="text/css">
   <![CDATA[
    .fil0 {fill:#393185;fill-rule:nonzero}
   ]]>
  </style>
 </defs>
 <g id="Слой_x0020_1">
  <metadata id="CorelCorpID_0Corel-Layer"/>
  <g id="_2841321880256">
   <path class="fil0" d="M428.21 2.36c-21.65,5.03 -32.4,16.43 -32.51,34.49 -0.12,21.02 11.66,30.67 49.42,40.52 18.35,4.78 24.59,13.07 15.91,21.12 -9.85,9.13 -29.14,3.21 -31.57,-9.71 -1.2,-6.44 -1.14,-6.42 -21.36,-5.3l-17.92 1 0.86 5.64c1.32,8.7 8.5,22.13 14.62,27.37 18.14,15.51 68.07,13.92 85.16,-2.72l5 -4.87 0.96 5.66c3.52,20.82 24.66,40.38 48.99,45.32l7.82 1.59 -4.62 6.05c-15.23,19.95 -15.66,60.75 -0.86,81.94 22.65,32.43 86.39,31.49 107.36,-1.58l3.91 -6.15 0 29.35 98.78 0 0 -31.56 -59 0 0 -91.93 -39.79 0 -0.07 14.07c-0.07,11.48 -0.38,13.57 -1.72,11.38 -7.56,-12.4 -22.28,-22.71 -36.71,-25.68l-7.78 -1.61 7.9 -5.93c24.55,-18.46 39.85,-52.13 35.92,-79.09 -10.33,-70.84 -112.37,-71.94 -151.24,-1.64 -2.51,4.53 -4.64,8.38 -4.75,8.56 -0.1,0.18 -3.6,-2.99 -7.78,-7.02 -8.65,-8.39 -15.61,-11.46 -39.24,-17.31 -21.99,-5.45 -26.49,-9.27 -19.1,-16.23 7.03,-6.61 22.34,-2.32 25.79,7.22 2.02,5.59 1.65,5.54 25.03,3.99l13.52 -0.9 -0.86 -5.38c-3.99,-24.96 -35.41,-38.71 -70.08,-30.65l0.01 -0.01zm-420.52 62.54l0 61.73 39.79 0 0 -49.39 4.04 0c6.38,0 10.24,4.69 22.54,27.44l11.51 21.26 22.12 0.38c12.17,0.2 22.12,0.01 22.12,-0.44 0,-6.96 -24.8,-47.08 -31.68,-51.26l-3.77 -2.3 7.61 -3.98c28.22,-14.77 22.88,-57.1 -8.05,-63.74 -3.9,-0.83 -23.67,-1.46 -46.51,-1.46l-39.72 0 0 61.74 0 0.02zm602.41 -50.99c62.1,16.2 56.41,103.32 -8.82,135.13 -66.47,32.41 -125.7,-20.79 -94.11,-84.52 18.43,-37.18 65.58,-60.36 102.92,-50.61l0.01 0zm-535.21 17.07c13.98,7.07 4.71,20.11 -15.09,21.24l-12.32 0.7 0 -23.7 12.01 0.02c6.87,0.01 13.45,0.75 15.4,1.74l0 0zm513.25 10.92c-10.93,2.9 -22.04,13.94 -22.05,21.91 -0.02,13.01 10.38,17.7 26.75,12.06 10.01,-3.44 12.56,-3.44 14.41,0.01 3.14,5.88 -7.15,11.86 -13.15,7.65 -3.01,-2.11 -14.13,4.54 -14.24,8.53 -0.18,5.99 14.99,8.26 24.28,3.63 29.51,-14.71 21.13,-46.27 -9.47,-35.71 -12.24,4.21 -14.87,4.4 -14.87,1.01 0,-5.33 8.33,-9.18 11.96,-5.55 1.48,1.48 12.73,-5.98 12.73,-8.45 0,-3.69 -9.96,-6.8 -16.36,-5.09l0.01 0zm-44.29 29.6c-6.55,4.74 -6.86,3.51 5.15,20.56 7.39,10.48 10.23,15.66 9.95,18.11 -0.49,4.2 -5.2,5.31 -8.5,2.01 -2.1,-2.1 -2.65,-1.93 -7.62,2.33 -12.56,10.76 6.53,20 20.71,10.03 15.59,-10.95 15.61,-17.74 0.12,-40.37 -12.02,-17.55 -12.57,-17.9 -19.82,-12.66l0.01 -0.01zm-503.63 75.75c-22.45,3.54 -35.59,16.67 -35.77,35.72 -0.17,19.44 12.43,30.52 43.65,38.33 19.14,4.79 25.44,8.45 25.44,14.75 0,17.74 -31.77,15.97 -35.13,-1.96 -1.18,-6.26 -1.03,-6.22 -21.29,-5.13l-17.96 0.98 0.89 5.62c4.1,25.79 19.1,36.52 52.5,37.57 26.49,0.83 35.6,-1.74 47.17,-13.31l7.92 -7.91 2.91 3.92c16.83,22.77 73.69,24.3 92.35,2.48 5.46,-6.37 11.59,-18.38 12.21,-23.91 0.44,-3.89 0.32,-3.96 -16.32,-9.01l-16.76 -5.08 -2.25 6.77c-7.66,23.07 -36.61,23.33 -42.96,0.39 -2.17,-7.79 -1.9,-26.42 0.49,-34.44 5.76,-19.4 30.12,-23.38 40,-6.53 4.12,7.03 3.01,6.9 21.72,2.67 17.81,-4.03 17.04,-3.31 12.98,-12.06 -16.1,-34.65 -70.24,-42.78 -98.94,-14.87l-8.01 7.78 -3.32 -5.67c-8.28,-14.13 -34.39,-21.39 -61.51,-17.1l-0.01 0zm379.07 0.04c-15.2,2.63 -30.21,12.2 -38.7,24.63 -2.27,3.33 -2.32,3.06 -2.4,-9.96l-0.07 -13.38 -39.79 0 0 42.54 -39.79 -0.01 0 -42.53 -39.78 0 0 123.48 39.78 0 0 -49.39 39.79 0 0 49.39 39.79 0 0 -27.91 4.3 6.48c17.88,26.98 73.17,31.72 98.33,8.42 29.12,-26.96 23.41,-88.29 -9.8,-105.23 -12.81,-6.54 -35.3,-9.39 -51.67,-6.55l0.01 0.02zm-356.76 25.29c2.29,1.19 4.98,4.41 6.44,7.71l2.51 5.68 26.8 -1.29 -0.87 7c-1.16,9.25 -1.68,9.6 -9.37,6.2 -3.62,-1.6 -13.76,-4.7 -22.54,-6.91 -20.77,-5.2 -23.35,-6.32 -24.41,-10.54 -1.97,-7.83 11.77,-12.85 21.45,-7.84l-0.01 -0.01zm380.28 4.85c20.32,5.65 24.44,52.28 5.59,63.37 -14.07,8.28 -31.87,1.23 -36.05,-14.28 -8.3,-30.82 7.07,-55.58 30.46,-49.09zm165.88 -0.03c23.61,6.56 23.13,59.61 -0.59,66 -19.08,5.13 -31.77,-8.13 -31.67,-33.07 0.11,-25.92 12.39,-38.45 32.27,-32.93l-0.01 0z"/>
  </g>
 </g>
</svg>
