<?xml version="1.0" encoding="UTF-8"?>
<!DOCTYPE svg PUBLIC "-//W3C//DTD SVG 1.1//EN" "http://www.w3.org/Graphics/SVG/1.1/DTD/svg11.dtd">
<!-- Creator: CorelDRAW -->
<svg xmlns="http://www.w3.org/2000/svg" xml:space="preserve" width="32px" height="32px" version="1.1" style="shape-rendering:geometricPrecision; text-rendering:geometricPrecision; image-rendering:optimizeQuality; fill-rule:evenodd; clip-rule:evenodd"
viewBox="0 0 32 32"
 xmlns:xlink="http://www.w3.org/1999/xlink"
 xmlns:xodm="http://www.corel.com/coreldraw/odm/2003">
 <defs>
  <style type="text/css">
   <![CDATA[
    .fil0 {fill:black}
   ]]>
  </style>
 </defs>
 <g id="Слой_x0020_1">
  <metadata id="CorelCorpID_0Corel-Layer"/>
  <path class="fil0" d="M1.69 22.83l6.88 0c0.36,0.38 0.73,0.71 1.13,1.09 0.41,0.4 0.61,0.6 1.03,1.08 1.07,1.2 3.02,2.73 4.36,4.26 0.37,0.41 1.8,1.79 2.22,2.05l-0.01 -30.54 -5.5 5.27c-0.37,0.36 -0.66,0.73 -1.03,1.09 -0.39,0.37 -1.98,1.74 -2.09,2.12l-6.96 0.01c-0.15,2.8 -0.03,9.69 -0.03,12.91l0 0.66z"/>
  <path class="fil0" d="M24.56 7.17c0.05,0.44 1.01,1.48 1.52,2.28 1.65,2.63 2.31,5.96 1.64,9.12 -1.11,5.24 -4.46,6.04 -2.73,7.49 1.07,0.89 1.9,-0.3 2.34,-0.87 2.14,-2.7 3.69,-7.14 2.93,-11.63 -0.43,-2.47 -1.97,-5.95 -3.66,-7.5 -0.88,-0.81 -2.19,-0.05 -2.04,1.11z"/>
  <path class="fil0" d="M20.61 9.6c-1.83,0.83 -0.01,2.5 0.33,3.07 1.36,2.36 1.16,5.31 -0.47,7.46 -0.35,0.45 -0.89,0.93 -0.54,1.73 0.23,0.51 0.9,0.96 1.63,0.65 0.66,-0.28 1.67,-2 2.03,-2.87 2.13,-5.06 -1.12,-10.89 -2.98,-10.04z"/>
 </g>
</svg>
