<?xml version="1.0" encoding="UTF-8"?>
<!DOCTYPE svg PUBLIC "-//W3C//DTD SVG 1.1//EN" "http://www.w3.org/Graphics/SVG/1.1/DTD/svg11.dtd">
<!-- Creator: CorelDRAW -->
<svg xmlns="http://www.w3.org/2000/svg" xml:space="preserve" width="32px" height="32px" version="1.1" style="shape-rendering:geometricPrecision; text-rendering:geometricPrecision; image-rendering:optimizeQuality; fill-rule:evenodd; clip-rule:evenodd"
viewBox="0 0 32 32.03"
 xmlns:xlink="http://www.w3.org/1999/xlink"
 xmlns:xodm="http://www.corel.com/coreldraw/odm/2003">
 <defs>
  <style type="text/css">
   <![CDATA[
    .fil0 {fill:black}
   ]]>
  </style>
 </defs>
 <g id="Слой_x0020_1">
  <metadata id="CorelCorpID_0Corel-Layer"/>
  <path class="fil0" d="M22.57 21.91c0.23,-0.79 0.75,-1.5 1.03,-2.6 0.71,-2.8 -0.11,-6.35 -2.05,-8.21 -0.8,-0.77 -2.12,-0.18 -2.05,0.93 0.06,1.06 3.42,3.16 1.29,7.98 -0.44,-0.24 -2.22,-2.14 -2.72,-2.64 -0.96,-0.96 -1.05,-0.79 -1.05,-1.69 0,-4.25 0.18,-9.42 0,-13.43 -0.31,0.14 -6.75,6.56 -7.07,6.89 -0.52,-0.24 -4.73,-4.62 -5.51,-5.4 -0.5,-0.49 -2.14,-2.66 -3.13,-1.03 -0.5,0.8 0.1,1.44 0.47,1.81 7.7,7.59 15.28,15.36 22.98,22.96l4.04 4.04c0.39,0.39 1.04,0.94 1.82,0.39 2.08,-1.45 -2.93,-4.22 -3.79,-5.87 0.36,-0.62 0.83,-1.21 1.25,-1.95 2.22,-3.95 2.3,-8.66 0.54,-12.81 -0.46,-1.06 -1.71,-3.19 -2.47,-3.86 -1.09,-0.95 -2.84,0.38 -1.71,1.71 2.51,2.98 3.62,6.92 2.65,10.86 -0.32,1.3 -1.29,3.59 -2.07,4.33l-2.45 -2.41z"/>
  <path class="fil0" d="M1.83 23.74c1.97,-0.01 3.95,0.02 5.92,0 0.8,-0.01 0.73,-0.01 1.15,0.41l8.12 7.86c0.03,-1.04 0.11,-8.71 -0.02,-9.13 -0.1,-0.33 -2.35,-2.42 -2.83,-2.96l-8.6 -8.6c-1.23,-1.02 0.12,-0.77 -3.76,-0.8l0.02 13.22z"/>
 </g>
</svg>
