<?xml version="1.0" encoding="UTF-8"?>
<!DOCTYPE svg PUBLIC "-//W3C//DTD SVG 1.1//EN" "http://www.w3.org/Graphics/SVG/1.1/DTD/svg11.dtd">
<!-- Creator: CorelDRAW -->
<svg xmlns="http://www.w3.org/2000/svg" xml:space="preserve" width="55px" height="55px" version="1.1" style="shape-rendering:geometricPrecision; text-rendering:geometricPrecision; image-rendering:optimizeQuality; fill-rule:evenodd; clip-rule:evenodd"
viewBox="0 0 55 55"
 xmlns:xlink="http://www.w3.org/1999/xlink"
 xmlns:xodm="http://www.corel.com/coreldraw/odm/2003">
 <defs>
  <style type="text/css">
   <![CDATA[
    .fil0 {fill:black}
   ]]>
  </style>
 </defs>
 <g id="Слой_x0020_1">
  <metadata id="CorelCorpID_0Corel-Layer"/>
  <g id="_2878112448768">
   <path class="fil0" d="M27.16 1.36c-3.17,0.44 -5.82,3.19 -5.35,6.87 0.4,3.08 3.2,5.77 6.94,5.29 3.02,-0.38 5.76,-3.27 5.24,-6.88 -0.45,-3.05 -3.21,-5.78 -6.83,-5.28z"/>
   <path class="fil0" d="M11.97 8.25c-2.76,0.44 -5.13,2.99 -4.63,6.31 0.41,2.72 3.05,5.09 6.32,4.6 2.72,-0.41 5.12,-3.05 4.6,-6.36 -0.42,-2.68 -3.08,-5.07 -6.29,-4.55z"/>
   <path class="fil0" d="M5.91 23.96c-2.56,0.32 -4.6,2.63 -4.2,5.6 0.33,2.44 2.68,4.5 5.65,4.07 2.47,-0.35 4.39,-2.74 4.02,-5.57 -0.32,-2.44 -2.63,-4.46 -5.47,-4.1z"/>
   <path class="fil0" d="M8.56 44.58c0.29,2.13 2.45,3.94 4.95,3.55 2.1,-0.33 3.91,-2.35 3.52,-4.94 -0.32,-2.13 -2.4,-3.9 -4.91,-3.53 -2.15,0.32 -3.9,2.36 -3.56,4.92z"/>
   <path class="fil0" d="M24.29 50.85c0.31,1.74 2.08,3.32 4.31,2.91 1.75,-0.32 3.29,-2.08 2.92,-4.28 -0.79,-4.59 -8.12,-3.6 -7.23,1.37z"/>
   <path class="fil0" d="M45.96 44.68c1.07,-3.88 -4.85,-5.46 -5.9,-1.64 -1.1,3.99 4.83,5.55 5.9,1.64z"/>
   <path class="fil0" d="M48.74 26.42c-1.18,0.25 -2.19,1.39 -1.88,2.87 0.24,1.17 1.38,2.19 2.86,1.91 3.07,-0.6 2.31,-5.47 -0.98,-4.78z"/>
   <path class="fil0" d="M42.59 11.92c-2.34,0.55 -1.58,4.09 0.84,3.56 2.27,-0.49 1.58,-4.12 -0.84,-3.56z"/>
  </g>
 </g>
</svg>
