<?xml version="1.0" encoding="UTF-8"?>
<!DOCTYPE svg PUBLIC "-//W3C//DTD SVG 1.1//EN" "http://www.w3.org/Graphics/SVG/1.1/DTD/svg11.dtd">
<!-- Creator: CorelDRAW -->
<svg xmlns="http://www.w3.org/2000/svg" xml:space="preserve" width="492px" height="59px" version="1.1" style="shape-rendering:geometricPrecision; text-rendering:geometricPrecision; image-rendering:optimizeQuality; fill-rule:evenodd; clip-rule:evenodd"
viewBox="0 0 492 58.6"
 xmlns:xlink="http://www.w3.org/1999/xlink"
 xmlns:xodm="http://www.corel.com/coreldraw/odm/2003">
 <defs>
  <style type="text/css">
   <![CDATA[
    .fil0 {fill:#2B2A29;fill-rule:nonzero}
   ]]>
  </style>
 </defs>
 <g id="Слой_x0020_1">
  <metadata id="CorelCorpID_0Corel-Layer"/>
  <path class="fil0" d="M64.45 27.2l-21.33 0c-1.17,0 -1.83,0.66 -1.83,1.84l0 6.62c0,1.17 0.66,1.84 1.83,1.84l11.08 0c-2.08,5.85 -7.61,8.16 -13.14,8.16 -8.67,0 -15,-6.11 -15,-16.03 0,-9.19 5.89,-15.3 15,-15.3 5.45,0 10.15,2.58 12.28,5.89 0.52,0.88 1.11,1.32 2.14,1.32l8.67 0c1.33,0 1.99,-0.81 1.55,-2.06 -3.02,-9.41 -12.94,-16.62 -24.64,-16.62 -15.51,0 -26.76,11.62 -26.76,26.77 0,15.15 10.96,26.76 25.29,26.76 6.85,0 12.2,-2.42 15.67,-7.03l0 4.17c0,1.17 0.66,1.83 1.83,1.83l7.36 0c1.17,0 1.84,-0.66 1.84,-1.83l0 -16.03 0 -8.46c0,-1.18 -0.67,-1.84 -1.84,-1.84l0 0z"/>
  <path id="_1" class="fil0" d="M117.46 53.3l-15.59 -47.86c-0.29,-1.03 -1.1,-1.55 -2.13,-1.55l-11.76 0c-1.03,0 -1.84,0.52 -2.14,1.55l-15.58 47.86c-0.45,1.33 0.22,2.06 1.54,2.06l9.04 0c1.03,0 1.77,-0.44 2.06,-1.54l1.94 -6.54 18.04 0 1.93 6.54c0.3,1.1 1.03,1.54 2.06,1.54l9.05 0c1.32,0 1.98,-0.73 1.54,-2.06zm-29.36 -17.05l5.76 -19.49 5.76 19.49 -11.52 0z"/>
  <path id="_2" class="fil0" d="M150.11 44.04l-15.81 0 0 -38.31c0,-1.18 -0.66,-1.84 -1.84,-1.84l-8.09 0c-1.17,0 -1.83,0.66 -1.83,1.84l0 47.8c0,1.17 0.66,1.83 1.83,1.83l4.05 0 21.69 0c1.18,0 1.84,-0.66 1.84,-1.83l0 -7.65c0,-1.18 -0.66,-1.84 -1.84,-1.84z"/>
  <path id="_3" class="fil0" d="M184.67 44.04l-15.81 0 0 -38.31c0,-1.18 -0.66,-1.84 -1.84,-1.84l-8.09 0c-1.17,0 -1.84,0.66 -1.84,1.84l0 47.8c0,1.17 0.67,1.83 1.84,1.83l4.05 0 21.69 0c1.17,0 1.84,-0.66 1.84,-1.83l0 -7.65c0,-1.18 -0.67,-1.84 -1.84,-1.84z"/>
  <path id="_4" class="fil0" d="M220.7 44.04l-17.28 0 0 -9.19 15.07 0c1.18,0 1.84,-0.66 1.84,-1.84l0 -7.35c0,-1.18 -0.66,-1.84 -1.84,-1.84l-15.07 0 0 -8.6 16.91 0c1.18,0 1.84,-0.67 1.84,-1.84l0 -7.65c0,-1.18 -0.66,-1.84 -1.84,-1.84l-16.91 0 -9.93 0c-1.17,0 -1.84,0.66 -1.84,1.84l0 47.8c0,1.17 0.67,1.83 1.84,1.83l1.84 0 25.37 0c1.17,0 1.83,-0.66 1.83,-1.83l0 -7.65c0,-1.18 -0.66,-1.84 -1.83,-1.84z"/>
  <path id="_5" class="fil0" d="M270.77 53.08l-13.22 -16.8c5.44,-2.94 9.1,-8.56 9.1,-14.74 0,-9.78 -7.86,-17.65 -17.64,-17.65l-8.09 0 -9.93 0c-1.17,0 -1.84,0.66 -1.84,1.84l0 47.8c0,1.17 0.67,1.83 1.84,1.83l8.09 0c1.18,0 1.84,-0.66 1.84,-1.83l0 -15.08 4.53 0 12.53 15.81c0.59,0.81 1.32,1.1 2.28,1.1l9.41 0c1.54,0 2.06,-1.1 1.1,-2.28l0 0zm-29.85 -38.16l8.09 0c3.23,0 5.88,2.87 5.88,6.62 0,3.75 -2.65,6.62 -5.88,6.62l-8.09 0 0 -13.24z"/>
  <path id="_6" class="fil0" d="M309.01 3.89l-9.41 0c-1.03,0 -1.7,0.44 -2.14,1.33l-8.38 16.05 -8.38 -16.05c-0.44,-0.89 -1.11,-1.33 -2.14,-1.33l-9.41 0c-1.39,0 -1.98,0.89 -1.25,2.21l15.3 26.73 0 20.7c0,1.17 0.66,1.83 1.84,1.83l8.08 0c1.18,0 1.84,-0.66 1.84,-1.83l0 -20.7 15.3 -26.73c0.73,-1.32 0.14,-2.21 -1.25,-2.21z"/>
  <path id="_7" class="fil0" d="M377.76 53.3l-15.59 -47.86c-0.29,-1.03 -1.1,-1.55 -2.13,-1.55l-11.77 0c-1.03,0 -1.84,0.52 -2.13,1.55l-15.59 47.86c-0.44,1.33 0.22,2.06 1.55,2.06l9.04 0c1.03,0 1.76,-0.44 2.06,-1.54l1.93 -6.54 18.04 0 1.94 6.54c0.29,1.1 1.03,1.54 2.06,1.54l9.04 0c1.33,0 1.99,-0.73 1.55,-2.06zm-29.37 -17.05l5.76 -19.49 5.76 19.49 -11.52 0z"/>
  <path id="_8" class="fil0" d="M402.32 3.89l-7.73 0 -9.92 0c-1.18,0 -1.84,0.66 -1.84,1.84l0 47.8c0,1.17 0.66,1.83 1.84,1.83l8.09 0c1.17,0 1.83,-0.66 1.83,-1.83l0 -14.34 7.73 0c10.14,0 18.01,-7.87 18.01,-17.65 0,-9.78 -7.87,-17.65 -18.01,-17.65zm0 24.27l-7.73 0 0 -13.24 7.73 0c3.6,0 6.25,2.87 6.25,6.62 0,3.75 -2.65,6.62 -6.25,6.62z"/>
  <path id="_9" class="fil0" d="M445.7 3.89l-7.72 0 -9.93 0c-1.18,0 -1.84,0.66 -1.84,1.84l0 47.8c0,1.17 0.66,1.83 1.84,1.83l8.09 0c1.18,0 1.84,-0.66 1.84,-1.83l0 -14.34 7.72 0c10.15,0 18.01,-7.87 18.01,-17.65 0,-9.78 -7.86,-17.65 -18.01,-17.65zm0 24.27l-7.72 0 0 -13.24 7.72 0c3.6,0 6.25,2.87 6.25,6.62 0,3.75 -2.65,6.62 -6.25,6.62z"/>
 </g>
</svg>
