<?xml version="1.0" encoding="UTF-8"?>
<!DOCTYPE svg PUBLIC "-//W3C//DTD SVG 1.1//EN" "http://www.w3.org/Graphics/SVG/1.1/DTD/svg11.dtd">
<!-- Creator: CorelDRAW -->
<svg xmlns="http://www.w3.org/2000/svg" xml:space="preserve" width="55px" height="55px" version="1.1" style="shape-rendering:geometricPrecision; text-rendering:geometricPrecision; image-rendering:optimizeQuality; fill-rule:evenodd; clip-rule:evenodd"
viewBox="0 0 55 55"
 xmlns:xlink="http://www.w3.org/1999/xlink"
 xmlns:xodm="http://www.corel.com/coreldraw/odm/2003">
 <defs>
  <style type="text/css">
   <![CDATA[
    .fil0 {fill:#FFED00}
   ]]>
  </style>
 </defs>
 <g id="Слой_x0020_1">
  <metadata id="CorelCorpID_0Corel-Layer"/>
  <g id="_2877793140112">
   <path class="fil0" d="M38.05 40.04c2.92,-0.67 5.38,1.58 5.84,3.8 0.63,2.98 -1.42,5.41 -3.84,5.95 -6.19,1.37 -8.77,-8.18 -2,-9.75zm-5.1 -5.04c-2.2,0.25 -6.52,-1.01 -7.1,2.84 -0.15,0.95 -0.05,8.43 -0.05,10.05 0,2.37 -0.72,6.64 3.08,6.9 3.05,0.21 6.92,0.01 10.07,0.01 3.29,0 6.65,0.06 9.93,0 4.06,-0.08 3.36,-4.46 3.36,-6.78l-0.04 -10.06c-0.51,-4.03 -5.06,-2.67 -7.11,-2.97 -1.55,-3.05 0.03,-3.28 -6.01,-3.28 -6.05,0 -4.64,0.13 -6.13,3.29z"/>
   <path class="fil0" d="M2.41 43.99c0.51,2.17 2.63,1.96 5.1,1.96l16.48 0c-0.02,-2.49 -0.08,-8.41 0.05,-9.25 0.58,-3.86 5.6,-3.37 7.8,-3.62 1.24,-2.64 1.62,-2.57 1.88,-3.27 0.27,-0.7 -2,-1.36 -4.56,-1.84 -2.81,-0.53 -11.09,-0.53 -13.86,-0.03 -4.14,0.74 -7.31,2.97 -9.27,5.28 -2.05,2.42 -4.3,7.88 -3.62,10.77z"/>
   <path class="fil0" d="M21.05 0.83c-15.32,2.24 -12.35,23.59 2.26,22.44 5.97,-0.46 10.44,-5.83 10.04,-12.37 -0.36,-5.65 -6.08,-10.99 -12.3,-10.07z"/>
  </g>
 </g>
</svg>
